<?xml version="1.0" encoding="UTF-8"?>
<svg width="752pt" height="752pt" version="1.1" viewBox="0 0 752 752" xmlns="http://www.w3.org/2000/svg">
 <path d="m464.04 349.89c-0.019531-0.13672-0.039062-0.27344-0.058593-0.40625-2.4336 1.1523-5.2305 1.9922-8.2031 2.0977 0.27734 1.4141 0.16797 3.5781-1.6367 6.7227-2.1641 3.7734-5.5078 2.8867-7.9492 2.2422-0.90625-0.23828-1.7578-0.46484-2.4688-0.46484-2.4062 0-5.4922 1.8555-7.7461 3.2109-1.3633 0.82031-2.4414 1.4688-3.2812 1.6836-0.11328 0.03125-0.22266 0.042969-0.33203 0.042969-0.59375 0-1.1367-0.39844-1.2891-1-0.18359-0.71484 0.24609-1.4414 0.95703-1.6211 0.46484-0.12109 1.5391-0.76563 2.5742-1.3867 2.5195-1.5156 5.9727-3.5938 9.1211-3.5938 1.0547 0 2.1172 0.28125 3.1445 0.55469 2.5156 0.66406 3.8633 0.91406 4.9609-0.99609 2.0508-3.5664 1.3398-5.1133 1.0352-5.7734-0.15234-0.32812-0.46484-1.0078 0.003906-1.6875 0.26562-0.38672 0.88281-0.625 1.3594-0.61719 7.6367 0.49219 13.871-4.8711 15.406-6.9492-1.0273 0.19531-3.3359 1.2734-5.2852 2.5938-0.41406 0.28125-0.95312 0.30469-1.3867 0.0625-0.39844-0.22266-0.65234-0.625-0.6875-1.0664-0.28125 0-0.75781-0.14844-1.0312-0.45703-0.47266-0.53516-0.43359-1.3438 0.078125-1.8398 0.51562-0.49609 1.2266-1.1445 2.0469-1.7891 0.55469-0.53125 1.0547-1.0508 1.4688-1.5234-1.832 1.5859-4.8438 4.207-7.75 2.1641-0.66406 0.41406-1.9844 2.0977-2.8008 3.1367-1.9648 2.5078-3.8242 4.875-5.875 4.875-1.8789 0-3.7539-0.52344-5.7422-1.0742-2.3555-0.65625-5.0234-1.3945-8.2109-1.3945-4.543 0-15.828 7.9219-19.797 10.977-0.58203 0.44922-1.418 0.33984-1.8672-0.24219-0.44922-0.58203-0.33984-1.418 0.24609-1.8672 1.5312-1.1797 15.152-11.527 21.422-11.527 3.5508 0 6.4062 0.79297 8.9258 1.4961 1.8867 0.52344 3.5117 0.97656 5.0312 0.97656 0.76172-0.007813 2.8008-2.6055 3.7773-3.8555 1.957-2.5 3.2383-4.043 4.7188-4.2148 0.58203-0.066406 1.1367 0.085938 1.5938 0.45703 0.92969 0.74219 2.0312 0.21094 3.8438-1.2852-1.0469-2.957-3.1602-5.5547-7.6641-7.0547-3.0859-1.0273-5.9609-1.3711-8.7383-1.7031-0.5-0.058594-0.99219-0.12109-1.4805-0.18359 0.17969-2.9219 0.53125-7.5312 1.3125-8.8906 0.36328-0.63672 0.82422-1.2656 1.2461-1.8555 1.2422-1.7266 2.4062-3.3594 1.9102-5.2539-0.17188-0.66406-0.53906-1.2383-1.0547-1.6836 1.4688-1.5703 2.4922-3.2773 2.1055-5.1445-0.17969-0.87109-0.83984-2.4453-3.25-3.2031l-0.625-0.16016h-0.40625c-4.0508 0-10.074 8.4141-10.137 8.5-1.4766 2.1562-2.1133 7.7305-2.3828 13.055-3.3516-2.2891-7.5234-4.6953-13.574-4.6953-1.3594 0-2.7734 0.12891-4.207 0.37891-9.9023 1.7305-18.766 10.266-21.102 14.238-0.41406 0.69922-3.7383 1.4805-6.1641 2.0547-3.6055 0.85156-8.0898 1.9062-12.992 4.0859l-2.9648 1.332c-8.8516 3.9922-23.672 10.672-31.371 10.672-0.63281 0-1.1875-0.046874-1.6641-0.14062-1.2344-0.24609-2.5039-0.375-3.7773-0.44531-0.56641-0.875-0.69922-1.7188-0.82422-2.5859-0.12109-0.84375-0.25781-1.8047-0.80078-2.6992-1.1055-1.8438-2.5625-2.3594-3.7617-2.4648 3.6133-5.3047 4.1914-7.918 2.1523-9.543-0.17578-0.14062-0.38281-0.26172-0.60547-0.35547-0.61719-0.72656-1.5703-1.1094-2.5781-1.0195-4.1758 0.35547-6.9062 5.0156-7.0195 5.2148-1.4766 2.5508-2.0469 6.9766-0.39844 9.6719 0.70703 1.1523 1.5352 3.1289 1.5898 4.043 0.035156 0.56641 0.10156 1.1133 0.19141 1.6445-2.4766 0.91016-4.5039 1.9531-5.8633 2.7578-2.543 1.5-4.6875 3.7383-6.7617 5.9023-1.5703 1.6367-3.0547 3.1836-4.5195 4.2109-1.1094 0.77734-1.7305 0.84375-2.3203 0.84375-0.39062 0-0.77734-0.039063-1.1875-0.070313-1.5938-0.13672-3.5273-0.14844-5.4023 0.30469-3.043 0.73047-5.207 2.8047-7.1172 4.6367-1.3789 1.3203-2.6758 2.5664-3.75 2.7227-0.73438 0.10547-2.2578 0.50391-4.1758 1.1016 0.89844-0.67578 1.8477-1.3359 2.8555-1.9688 0.625-0.39062 0.80859-1.2148 0.41406-1.8359-0.39063-0.62109-1.2188-0.80859-1.8359-0.41406-2.1758 1.3711-4.1094 2.8516-5.793 4.3086-0.003906-0.023437 0-0.046875-0.007812-0.070313-0.22266-0.69922-0.97266-1.0859-1.6719-0.86328-3.0117 0.96484-6.0469 4.1094-8.0469 6.5469-0.39453 0.20703-0.76562 0.42188-1.1445 0.63281 0.85547-1.7891 2.0312-3.8789 3.5938-5.8164 0.46094-0.57422 0.37109-1.4102-0.19922-1.8711-0.57031-0.46484-1.4102-0.37109-1.8711 0.19922-3.1953 3.9609-4.918 8.4062-5.5273 10.191-0.71094 0.60547-1.3164 1.2148-1.7227 1.8203-1.0312 1.5352-0.99219 2.8789-0.78125 3.7305 1.0234 4.0898 3.5742 7.4492 7.5859 10.09 2.0039 5.2422 5.3203 12.148 9.7812 15.352 0.23438 0.16797 0.50781 0.25 0.77344 0.25 0.41406 0 0.82422-0.19141 1.0859-0.55469 0.42969-0.59766 0.29297-1.4297-0.30469-1.8594-3.1523-2.2656-5.7383-6.8633-7.6094-11.141 0.62109 0.28516 1.2422 0.57031 1.9141 0.83203 4.043 6.3594 9.75 14.344 13.723 15.793 0.14844 0.054687 0.30469 0.078125 0.45703 0.078125 0.54297 0 1.0547-0.33594 1.2539-0.875 0.25391-0.69141-0.10547-1.4531-0.79688-1.707-2.668-0.97266-6.8711-6.4141-10.566-11.949 0.66016 0.1875 1.3203 0.37891 2.0156 0.54688 5.8008 7.6953 14.059 17.871 17.93 18.938 0.11719 0.03125 0.23828 0.046875 0.35547 0.046875 0.58203 0 1.1172-0.39062 1.2812-0.97656 0.19531-0.71094-0.22266-1.4453-0.92969-1.6367-2.5273-0.69531-8.7734-7.9375-14.648-15.543 5.6797 1.0156 12.336 1.5391 20.02 1.5391 1.0742 0 2.1055-0.011719 3.0977-0.03125-0.15625 1.7031 0.082031 3.4102 1.082 4.8164 1.2422 1.75 3.2891 2.6289 6.1016 2.6289 1.1719 0 2.4844-0.15625 3.9219-0.45703 6.1328-1.3086 8.1914-4.2344 8.75-6.7734 3.2812 0.13281 7.3242 0.23047 12.285 0.23047 14.348 0 30.559-0.77344 48.176-2.2891 18.629-1.6094 35.348-7.6016 49.688-17.816l0.85547-0.60547c0.80078-0.54688 2.0117-1.8789 5.5586-5.8633 4.1562-4.668 12.801-14.391 15.617-15.539 1.1367-0.46484 2.0469-1.0078 2.8008-1.6133 5.7148 1.0547 16.863 4.6211 16.863 16.371 0 12.414-5.6719 16.613-10.676 20.316-1.3125 0.97266-2.5547 1.8906-3.6641 2.9258-0.33984 0.3125-33.805 32.789-32.305 41.449 0.23438 1.3516 1.0781 2.4297 2.3203 2.9609 0.46094 0.19531 0.94922 0.29688 1.4609 0.29688h0.003907c2.9961 0 5.5039-3.2656 10.504-9.7656 6.0312-7.8359 14.285-18.574 25.328-25.551 5.2773-3.3359 20.844-17.719 21.613-32.117 0.82422-15.637-13.824-26.871-29.148-30.266zm-197.59 42.719c-1.9961-2.1641-3.1289-5.0977 1.25-7.2812 0.91406-0.46094-0.69141 7.8867-1.25 7.2812zm55.066 13.113c-0.34766 1.1055-1.9961 2.0273-4.6289 2.5859-3.2305 0.69531-4.3906 0.20312-4.5664-0.042969-0.58984-0.83203 0.39844-4.2539 2.0039-6.9141 0.26172-0.43359 0.33984-0.91016 0.33984-1.3789h4.7109c0.03125 0.52734 0.17188 1.0508 0.45703 1.4766 0.17578 0.26562 0.39062 0.48828 0.63281 0.66406 0.54297 0.78906 1.418 2.4336 1.0508 3.6094zm26.902-26.789c-0.64844 0.35938-1.4531 0.11328-1.8047-0.53125-1.8203-3.3438-3.5938-3.9844-5.1602-4.5508-1.5391-0.55859-3.2852-1.1875-3.4492-4.2109-0.03125-0.55859 0.20312-1.1875 0.625-2.332 0.63672-1.7227 1.7383-4.6953 1.3438-6.8555-0.27344 0.625-0.61328 1.3438-1.0117 2.1836-0.28125 0.58203-0.51563 1.0586-0.60547 1.3047-0.003907 0.019532-0.011719 0.039063-0.019531 0.054688-0.23828 0.69141-0.98828 1.0664-1.6875 0.82422-0.69141-0.23437-1.0664-0.98828-0.83594-1.6797 0.003906-0.007813 0.003906-0.019531 0.011719-0.03125 0.12109-0.34766 0.23828-0.67578 0.35547-0.98438-0.082032 0.089844-0.16797 0.18359-0.25781 0.27734-0.48828 0.52344-1.3047 0.5625-1.8477 0.097656-0.53906-0.46875-0.61328-1.2812-0.16406-1.8398 0.17969-0.22656 0.35547-0.44141 0.52734-0.64453-0.5 0.46484-0.89062 0.92578-1.0898 1.2695-0.68359 1.1836 0.23828 3.5156 1.2344 5.1484 0.66406 1.0898 0.76953 3.0117 0.83203 5.4141 0.011719 0.47656 0.023438 0.91406 0.046876 1.2695 0.16406 2.7422 3.0547 6.4375 4.1562 7.625 0.5 0.53906 0.46484 1.3828-0.074219 1.8789-0.25391 0.23828-0.58203 0.35547-0.90234 0.35547-0.35938 0-0.71484-0.14453-0.97656-0.42969-0.1875-0.20312-4.6016-5.0312-4.8555-9.2695-0.023438-0.38281-0.039063-0.85156-0.050782-1.3594-0.03125-1.1445-0.097656-3.5273-0.44531-4.0977-0.89844-1.4727-2.8203-5.1836-1.2695-7.8711 0.78125-1.3516 3.5391-4.1094 6.3594-4.3516 0.63672-0.054687 1.0586 0.14844 1.3359 0.38281 0.11328-0.035157 0.19531-0.050781 0.26172-0.058594 0.50391-0.0625 1.2188 0.19922 1.5117 0.59766 0.12109 0.16406 0.21484 0.34375 0.26562 0.53906 0.38281 0.12891 0.81641 0.41797 1.1602 1.0391 1.7617 3.1914 0.15234 7.5391-0.80859 10.137-0.19531 0.52734-0.44141 1.1836-0.46484 1.3789 0.070313 1.1484 0.32031 1.2383 1.6992 1.7383 1.707 0.61719 4.293 1.5547 6.5938 5.7852 0.34766 0.63281 0.10938 1.4414-0.53906 1.7969z"/>
</svg>
