<?xml version="1.0" encoding="UTF-8"?>
<svg width="752pt" height="752pt" version="1.1" viewBox="0 0 752 752" xmlns="http://www.w3.org/2000/svg">
 <g>
  <path d="m459.95 409.21 0.31641 0.29688c2.5625 2.5 5.9688 3.9492 9.5469 4.0703 0.93359 0.003907 1.8633-0.12109 2.7656-0.37109l1.5742-0.44531-1.7422-0.49609c-0.24609-0.066406-0.5-0.13672-0.73828-0.22266v0.003906c-0.70703-0.23047-1.3594-0.59766-1.9219-1.0859-0.35156-0.32812-0.62891-0.73047-0.81641-1.1758-0.13281-0.34375-0.19531-0.70703-0.19141-1.0742v-0.34766l-0.33594-0.085938c-0.68359-0.17969-1.3438-0.42578-1.9766-0.73828-0.98828-0.48828-1.9102-1.1055-2.7422-1.8281-0.24609-0.20703-0.45703-0.41016-0.65625-0.60547l-0.52344-0.52344-0.24609 0.69531h0.003906c-0.45703 1.3086-1.1445 2.5234-2.0273 3.5898z"/>
  <path d="m487.37 421.88c-0.60156 0.16406-1.2109 0.29688-1.8281 0.39844-2.7383 0.30078-5.5078 0.035156-8.1406-0.76953-5.1602-1.7969-10.109-4.1406-14.766-7-1.7656-1-3.5312-1.9961-5.3242-2.9609l-0.46484-0.24609-0.44922 0.26953v0.003907c-3.5352 2.0977-7.6992 2.8633-11.75 2.1602l-0.85156-0.15234-0.21094 0.83203v0.003907c-0.23828 0.85547-0.10547 1.7773 0.37109 2.5312 1.3477 2.168 5.3203 2.9961 8.2188 3.6055v-0.003907c0.74609 0.14062 1.4883 0.31641 2.2188 0.53516 2.6953 1.0703 5.2773 2.4141 7.6953 4.0117 4.1992 2.3008 8.9023 3.5234 13.688 3.5508 1.5078 0.19141 2.9844 0.54687 4.4102 1.0586 1.8125 0.67578 3.7188 1.0781 5.6484 1.1953 0.54688 0.003906 1.0898-0.054688 1.625-0.17578 0.33984-0.082031 0.66406-0.22266 0.95312-0.42187 0.21094-0.13281 0.25781-0.16406 0.37109-0.16797 0.15625 0.066406 0.30859 0.14453 0.44922 0.24219 0.45312 0.34375 1.0156 0.51172 1.582 0.46484 1.4805-0.27734 1.7852-0.98828 1.7695-1.5352-0.050781-1.8867-4.7148-3.0508-4.75-3.0586-1.2891-0.17969-2.5703-0.26172-3.7734-0.33984-0.66406-0.039062-1.3086-0.082031-1.9102-0.13672h-0.003907c-0.98438-0.082032-1.9688-0.23828-2.9336-0.46484l3.6602-0.39062c1.6953-0.21484 3.4062-0.28906 5.1133-0.23047 1.0586 0.0625 2.1055 0.23828 3.125 0.52734h0.65234 0.31641l0.84766-0.25391 0.003907-0.003907c0.20312-0.066406 0.40625-0.15234 0.59766-0.25391l0.21875-0.10547c0.24219-0.10547 0.47656-0.22656 0.70312-0.36719 0.29297-0.16797 0.57812-0.34375 0.85938-0.53125l1.0352-0.5-0.70703-0.90234c-1.5703-2.0469-5.4375-1.1055-8.2695-0.41797z"/>
  <path d="m462.47 401.84c0.19922 0.85937 0.76953 1.5859 1.5547 1.9844 0.93359 0.36719 1.9375 0.52734 2.9375 0.46484 1.1914 0.046875 2.3828-0.10156 3.5234-0.44531 0.21875-0.097656 0.39453-0.17578 0.57422-0.27344l2.0469-1.1094-2.2461-0.59766v-0.003906c-1.2812-0.31641-2.5078-0.82812-3.6328-1.5156-1.043-0.64844-1.8477-1.6172-2.2891-2.7617l-1.0156-2.6562-0.73828 2.7461c-0.26172 0.97266-0.55859 1.8828-0.86719 2.7266l-0.085937 0.23438 0.039062 0.24609c0.058594 0.28516 0.10938 0.60156 0.19922 0.96094z"/>
  <path d="m471.77 415.41-4.1875 0.77344 3.8398 1.8516v-0.003906c3.4023 1.7969 7.1484 2.8516 10.992 3.1016l1.4336 0.042969-0.003906-1.5117c0.10156-2.5898-3.1602-3.1367-4.7305-3.3945l-0.70703-0.125v-0.003906c-1.3945-0.22266-2.7578-0.59375-4.0703-1.1094l-0.52734-0.23828-0.53516 0.20703h-0.003907c-0.48438 0.18359-0.98828 0.32031-1.5 0.41016z"/>
  <path d="m362.31 363.92c-13.996 6.5859-29.43 9.5117-44.863 8.5078-19.008-1.4805-37.488-6.1445-56.332-8.7266h-0.003907c-10.129-1.6055-20.402-2.0898-30.633-1.4375-9.9727 0.86719-19.824 2.8281-29.816 3.5469h-0.003906c-7.5352 0.70312-15.137 0.33203-22.566-1.1094-5-1.0742-13.824-3.8516-18.773-0.59375v-0.003906c17.938 3.8438 36.285 5.4258 54.617 4.7031v-0.15625c0.039062-0.31641 0.125-0.625 0.25391-0.91797 0.20703-0.4375 0.45312-0.55859 0.69141-0.51172 0.24219 0.046875 0.46484 0.23438 0.59766 0.63281l0.003906 0.003906c0.070313 0.25391 0.11328 0.51562 0.13281 0.78125 0 0.046875 0.027343 0.10938 0.035156 0.17188l4.7812-0.035156c0.21875-0.81641 0.32812-1.5234 0.48828-1.9648 0.17969-0.69531 0.41406-0.96094 0.66797-0.96094s0.47266 0.26563 0.62109 1.0195h0.003906c0.078125 0.62109 0.085937 1.2539 0.019531 1.8789 3.0117-0.027344 6.0352-0.046875 9.0469-0.046875 0.10938-0.73047 0.35938-1.4297 0.74219-2.0625 0.53516-0.81641 0.97266-0.92969 1.1562-0.79297 0.18359 0.13672 0.17969 0.52344 0.035156 1.293-0.097656 0.51562-0.16797 1.0352-0.20703 1.5625 1.8516 0 3.6992 0 5.5195 0.023437 0.027344-0.33984 0.035156-0.66016 0.050781-0.94922l0.003906-0.003906c0.09375-0.67578 0.27344-1.332 0.53516-1.9609 0.51172-0.91406 0.85156-1.1484 1.0742-1.0234 0.22266 0.12109 0.31641 0.54688 0.17188 1.3906-0.050781 0.41406-0.035156 1-0.085937 1.707 0 0.25391 0.023437 0.5625 0.023437 0.86719 1.3906 0.027344 2.7773 0.046875 4.168 0.097656v-0.003906c0.25781-1.4141 0.8125-2.7578 1.6211-3.9453 0.71875-0.91406 1.2188-1.0469 1.3906-0.90234 0.17578 0.14453 0.085937 0.59766-0.25781 1.5391h-0.003906c-0.39453 1.082-0.70703 2.1953-0.93359 3.3281 1.582 0.050781 3.1836 0.12109 4.7656 0.19531 0.078125-0.73047 0.28125-1.4414 0.59375-2.1055 0.46484-0.76562 0.79688-0.94141 1.0156-0.82812 0.21875 0.10938 0.32812 0.5 0.21875 1.2227 0 0.4375-0.074218 1.0469-0.085937 1.8164 2.2578 0.13281 4.5117 0.29297 6.7656 0.5 0.035156-0.22266 0.085937-0.42969 0.13281-0.62109 0.14844-0.45312 0.28125-0.86719 0.40234-1.2227l0.003906-0.003907c0.24219-0.57812 0.5625-1.125 0.94922-1.6211 0.66016-0.70703 1.0117-0.83984 1.2188-0.68359s0.19531 0.57422-0.097656 1.3164c-0.14844 0.37109-0.25391 0.90234-0.46094 1.5234-0.074219 0.33984-0.16016 0.70703-0.26953 1.1094 0 0.10938-0.035156 0.24609-0.058594 0.35156l-0.003906 0.003906c0.050781 0.007813 0.097656 0.007813 0.14453 0 2.7656 0.28125 5.5508 0.64453 8.2812 1.0742v-0.003906c0.17188-0.55078 0.41797-1.0781 0.73828-1.5586 0.48828-0.62109 0.80469-0.73828 1.0234-0.62109 0.21875 0.11719 0.30469 0.47266 0.17188 1.1328-0.035156 0.34375-0.14453 0.76953-0.24609 1.3047 2.0977 0.33984 4.1797 0.70703 6.2656 1.0859l0.003906-0.003906c0.11328-0.61328 0.30078-1.2109 0.56641-1.7773 0.29297-0.64453 0.66406-1.2461 1.1094-1.793 0.66797-0.80469 1.0859-0.96094 1.293-0.82812 0.20703 0.13281 0.18359 0.57422-0.17187 1.4805-0.46094 1.0508-0.79688 2.1562-0.99609 3.2891 2.7305 0.5 5.4492 1.0234 8.168 1.5234 0.13672-1.2812 0.48438-2.5312 1.0352-3.6992 0.53516-0.92969 0.875-1.1836 1.1094-1.0742 0.23438 0.10938 0.30859 0.54688 0.12109 1.4805-0.097657 0.79688-0.32813 1.9258-0.48438 3.6328 3.7188 0.68359 7.4375 1.3164 11.176 1.8281 0.046875-1.8867 0.37109-2.5234 0.76953-2.5234s0.80469 0.69531 0.98828 2.7461c2.5898 0.31641 5.2148 0.57422 7.8516 0.71875l-1.832-0.21875c0.13672-0.73828 0.28125-1.3672 0.41406-1.8516h0.003906c0.14062-0.40234 0.31641-0.78906 0.52344-1.1602 0.37109-0.52344 0.63281-0.64453 0.86719-0.54688 0.23438 0.097657 0.37109 0.40234 0.37109 0.97656-0.015625 0.37109-0.0625 0.74219-0.13281 1.1094-0.035156 0.46094-0.10937 1.0234-0.23047 1.6953 1.2656 0.085938 2.5352 0.14844 3.8164 0.17188 1.2812 0.023438 2.5898 0 3.8633 0.027344l-0.003906-0.003906c-0.054687-0.85938 0.023437-1.7227 0.23438-2.5625 0.26562-0.76953 0.52344-1 0.78125-0.94141 0.48828 0.13672 0.51172 0.89062 0.78125 3.5 1.6328 0 3.2539-0.027344 4.8867-0.0625-0.027344-0.30469-0.046875-0.60547-0.046875-0.875 0.027344-0.51953 0.10938-1.0391 0.24219-1.5469 0.19141-0.78125 0.42578-1.0352 0.67969-1.0156 0.25391 0.023437 0.47656 0.32812 0.60938 1.0625 0.074218 0.37109 0.097656 0.85547 0.14844 1.4492 0.046875 0.26953 0.097657 0.57422 0.14453 0.89062 2.4141-0.0625 4.8086-0.14844 7.2305-0.24609 0.085938-0.64844 0.17969-1.2305 0.28125-1.7422v0.007812c0.14844-0.67578 0.34375-1.3438 0.58594-1.9922 0.37109-0.97266 0.66016-1.3125 0.91406-1.2539 0.25391 0.058593 0.37109 0.47656 0.37109 1.5117 0 0.51172-0.085937 1.168-0.19531 2.0234-0.027343 0.41406-0.0625 0.86719-0.12109 1.375l7.168-0.32812c-0.023438-0.53516-0.035157-1.0234-0.046876-1.4805l-0.007812 0.003907c0.058594-0.75781 0.16797-1.5117 0.32031-2.2578 0.24609-1.1094 0.5-1.5117 0.73828-1.4805 0.24219 0.035156 0.45312 0.47656 0.54688 1.5742 0.050781 0.53516 0.050781 1.2422 0.074219 2.1445 0.046874 0.42969 0.10156 0.89062 0.13281 1.3906 1.9531-0.085937 3.9023-0.17188 5.8516-0.24609 0.13281-1.1094 0.25391-2.0625 0.37109-2.8516 0.10156-0.90234 0.14844-1.6367 0.24609-2.1836 0.18359-1.0859 0.42969-1.5078 0.68359-1.5078s0.47266 0.42578 0.62109 1.5469h0.003906c0.089844 0.74219 0.13281 1.4922 0.13281 2.2422-0.046875 0.73828-0.12109 1.6445-0.23047 2.6836 4.2422-0.16406 8.4883-0.26562 12.727-0.26562-1.6758-3.7461-2.5391-7.8047-2.5352-11.91 0.003906-0.054688 0.015625-0.11328 0.035156-0.16797z"/>
  <path d="m536.89 354.32-0.37109-0.19531-0.38672 0.14062c-0.80859 0.23438-1.4609 0.82812-1.7617 1.6133-0.25 1.7031 0.22656 3.4375 1.3125 4.7773l0.40234 0.69531c2.0312 3.5586 4.3789 7.3203 6.7383 7.3203 0.089843 0.003906 0.17578 0.003906 0.26562 0l0.48047-0.058594 0.875-1.7031-0.29297-0.43359h0.003906c-0.94922-1.5352-1.7539-3.1523-2.4102-4.8359-0.82812-2.8789-2.5234-5.4375-4.8555-7.3203z"/>
  <path d="m535.27 351.77 5.5508 4.625 0.085938 0.14844h-0.003906c0.82812 1.582 1.5156 3.2305 2.0547 4.9297l0.19531 0.55078c0.40234 1.5 1.1641 2.875 2.2227 4.0117 0.64844 0.60547 1.5039 0.94531 2.3906 0.94922 0.37891 0 0.75391-0.0625 1.1133-0.17578 1.418-0.48438 2.4844-1.6797 2.8008-3.1445 0.71875-3.2656-3.082-5.5781-5.3242-6.9453l-0.48047-0.29688c-1.0352-0.66016-2.1016-1.2695-3.1992-1.8203l-3.668-1.7617-1.6289-2.7852h0.003906c-1.5117-2.4102-3.9727-4.0742-6.7734-4.5781-1.6055-0.31641-3.2734 0.12891-4.5039 1.2109l-2.1484 1.9688 2.8867 0.42578h-0.003906c2.9805 0.23828 5.8633 1.1602 8.4297 2.6875z"/>
  <path d="m541.14 371.1c-3.2148-2.2383-5.8281-5.2344-7.6055-8.7266-1.4297-2.4023-3.7812-6.8359-0.97656-9.25l0.21875-0.14844c-4.8086-2.3008-10.398-0.9375-15.199-3.4648-5.707-3.0078-11.145-6.5547-16.848-9.6211-6.3516-3.3789-12.008-7.9492-18.406-11.168l-0.003906 0.003906c-6.4727-3.2539-13.418-5.4727-20.578-6.5703-7.1914-1.0078-14.441-1.5234-21.699-1.5508-6.7422-0.097657-14.875-1.3281-21.301 1.0391v0.003907c-6.3008 2.7617-12.398 5.9648-18.246 9.5859-5.0312 2.5703-9.9141 5.4297-14.621 8.5547-5.6562 3.8008-10.727 8.4141-15.043 13.691-2.2773 2.6797-3.7656 5.9375-4.2969 9.418-0.53516 3.4766-0.089843 7.0312 1.2852 10.27 3.8281 12.312 20.031 14.531 31.32 16.211 5.4297 0.66797 10.82 1.6211 16.152 2.8555-1.168-1.1797-2.0391-2.6211-2.5352-4.2031-0.33984-1.2695-0.24609-2.6133 0.26953-3.8203-2.3945-0.26563-4.7578-0.73438-7.0703-1.4023-2.0391-0.55469-3.9336-1.543-5.5508-2.8984-0.97266-0.87109-1.6875-1.9883-2.0742-3.2305-0.085938-0.28516-0.14453-0.57422-0.18359-0.86719h-0.058594c-3.8906 0.50781-7.8281-0.50781-10.992-2.832-1.5156-1.1719-2.7227-2.6953-3.5234-4.4375-0.19141-0.41797-0.36328-0.84375-0.51172-1.2812l-0.10938-0.31641v-0.035156l-0.0625-0.23047v-0.074219l-0.035156-0.14844-0.10938-0.55859h-0.003906c-0.18359-0.79688-0.28906-1.6094-0.3125-2.4297-0.16406-3.25 0.71484-6.4648 2.5117-9.1797 1.4648-2.207 3.2734-4.1641 5.3594-5.8008 2.9258-2.2578 6.168-4.0742 9.6211-5.3906 2.4219-0.88672 3.8516-1.1094 3.9492-0.86719 0.097656 0.24609-1.1094 1.0156-3.2422 2.3047v0.003906c-2.9961 1.7852-5.8164 3.8516-8.4258 6.168-1.7109 1.5469-3.1797 3.3359-4.3672 5.3164-0.14453 0.25391-0.29297 0.52344-0.4375 0.79297-0.14453 0.26953-0.23438 0.55859-0.37109 0.83984s-0.23047 0.5625-0.33984 0.83984-0.14844 0.59766-0.23438 0.89062c-0.085937 0.29297-0.14453 0.59375-0.21875 0.90234-0.074219 0.30859-0.058593 0.62109-0.085937 0.92578h0.003906c-0.035156 0.30469-0.054688 0.61719-0.0625 0.92578l0.0625 0.875v0.003906c0.03125 0.69922 0.14453 1.3906 0.33984 2.0586l0.12109 0.55859 0.027343 0.085937 0.085938 0.22266c0.13281 0.29297 0.21875 0.60547 0.37109 0.88672 0.56641 1.1602 1.4023 2.168 2.4375 2.9375 2.3633 1.6406 5.2578 2.332 8.1055 1.9414 0.71484-0.089844 1.4219-0.22656 2.1211-0.40625l1.0625-0.26563c-0.48828-0.10547-0.96484-0.25781-1.4258-0.44922-0.24609-0.12109-0.48828-0.25391-0.73828-0.37109l-0.37109-0.19531-0.19141-0.097657-0.050781-0.027343-0.097656-0.058594-0.12109-0.085938v0.003906c-0.55469-0.36719-1.0664-0.79297-1.5273-1.2695-1.0586-1.0625-1.6797-2.4844-1.7305-3.9844 0-1.3633 0.61328-2.6562 1.6719-3.5117 0.22656-0.18359 0.46094-0.34766 0.70703-0.5-0.17969-0.089844-0.37109-0.16016-0.53516-0.25781-0.52734-0.25-0.99609-0.60938-1.3672-1.0586-0.36328-0.48047-0.55859-1.0703-0.55078-1.6719v-0.050781c0.003906-0.61328 0.17969-1.2148 0.51172-1.7305 0.26172-0.42188 0.58594-0.80469 0.96094-1.1328 0.57812-0.50391 1.25-0.89062 1.9766-1.1367 0.45703-0.17188 0.95312-0.23438 1.4375-0.17969 0.32812 0.035156 0.47266 0.14453 0.47266 0.20703s-0.17188 0.14453-0.44922 0.24609h0.003906c-0.38672 0.14453-0.75781 0.32813-1.1094 0.54688-0.54297 0.32812-1.0312 0.74219-1.4492 1.2188-0.50781 0.50391-0.78906 1.1875-0.78125 1.9023v0.058594c0.035156 0.51562 0.33984 0.82812 1.1094 1.168 0.76953 0.33984 1.6836 0.53516 2.7656 0.98828l2.6562 1.1094-2.8398 0.73828c-1.6328 0.41406-3.2031 1.4805-3.1445 3.0586v0.003906c0.050781 0.98828 0.46094 1.9219 1.1562 2.6211 0.33984 0.37891 0.72266 0.71484 1.1367 1.0078l0.085938 0.0625 0.19531 0.10937 0.37109 0.20703 0.73828 0.39844v0.003907c1.5781 0.72266 3.3555 0.86328 5.0273 0.39453 0.35547-0.078125 0.70312-0.19141 1.0352-0.33984 0.31641-0.097656 0.625-0.22266 0.92578-0.37109 0.54688-0.30469 1.0625-0.51172 1.4375-0.76562 0.76562-0.48828 1.2422-0.73828 1.3555-0.62109 0.10937 0.11719-0.20703 0.53516-0.85547 1.2539-0.42578 0.40625-0.87891 0.78516-1.3555 1.1367-0.30859 0.20703-0.62891 0.39844-0.96094 0.56641-0.35937 0.22266-0.74609 0.39844-1.1484 0.52734-0.90234 0.36328-1.8672 0.5625-2.8398 0.58594l-0.60547 2.5391v-0.003907c-0.38281 1.1211-0.03125 2.3594 0.875 3.1211 1.168 0.96484 2.5195 1.6836 3.9727 2.1094 3.1211 0.91016 6.3164 1.5508 9.5469 1.9102l4.3398 0.63672-3.4727 2.5898c-0.5625 0.37891-1.0273 0.87891-1.3672 1.4609-0.25391 0.48828-0.32812 1.0508-0.20703 1.5898 0.41406 1.3711 1.1562 2.6211 2.1562 3.6445 1.1953 1.2969 2.4805 2.5117 3.8398 3.6328 3.5938 1.5352 6.8516 3.7617 9.5938 6.543 4.0977 4.2188 8.4727 9.8867 14.922 10.023 4.7422 0.57422 9.4062-1.543 12.094-5.4922 0.29297-1.0469 0.66016-2.3398 1.0352-3.8633 0.60937-2.3945 1.0625-4.8242 1.3633-7.2773 0.16797-1.3711 0.21094-2.7539 0.125-4.1328-0.054688-0.64062-0.17969-1.2695-0.37109-1.8789-0.13281-0.45703-0.37109-0.87109-0.69141-1.2188-0.69531-0.48438-1.5742-0.62109-2.3789-0.37109l-3.8477 0.61328 1.6328-3.4492h-0.003907c0.75391-1.9961 0.77734-4.1953 0.0625-6.207-0.53516-1.8242-1.3711-3.5469-2.4727-5.0977-0.73047-1.0352-1.5938-1.9727-2.5625-2.7891-0.29297-0.31641-0.68359-0.52344-0.86719-0.73828-0.17969-0.21484-0.29297-0.35156-0.24609-0.46094s0.19531-0.19531 0.47266-0.23438h0.003907c0.41016-0.046875 0.82031-0.007813 1.2109 0.10938 1.4883 0.44141 2.8477 1.2461 3.9492 2.3438 1.6875 1.5859 3.0039 3.5312 3.8516 5.6875 0.55859 1.3203 0.90625 2.7188 1.0234 4.1445 0.050781 0.67188 0.042968 1.3438-0.023438 2.0117 1.1289 0.16016 2.1797 0.66406 3.0117 1.4414 0.84766 0.82422 1.4727 1.8594 1.8047 2.9961 0.25781 0.92969 0.41406 1.8867 0.46094 2.8516v0.47656l0.47656-0.68359c0.40234-0.54688 0.84766-1.0664 1.3281-1.5469 0.25391-0.24609 0.54687-0.48828 0.83984-0.73828l0.42969-0.35156c0.14453-0.10938 0.25391-0.17188 0.37109-0.25781l0.37109-0.24219 0.17969-0.10938 0.097656-0.0625 0.22266-0.14453 0.80469-0.42578c0.51562-0.26953 1.0234-0.53516 1.5508-0.81641l-0.003906-0.003907c0.38281-0.18359 0.73828-0.42188 1.0586-0.70703 0.30859-0.30859 0.58203-0.65234 0.81641-1.0234 0.25391-0.37109 0.59375-0.97656 0.89062-1.4375l0.4375-0.73828c0.16016-0.26562 0.30859-0.53516 0.48828-0.79297v-0.003906c0.66797-1.0469 1.4102-2.043 2.2188-2.9844 1.5742-1.8438 3.4336-3.4219 5.5117-4.668 1.9883-1.1914 4.1992-1.9688 6.4961-2.2812 0.83594-0.10937 1.6836-0.15625 2.5273-0.13672 0.042969-0.15234 0.10156-0.30469 0.16797-0.44922 0.21875-0.4375 0.5-0.83594 0.83203-1.1914 0.97266-0.98438 2.0664-1.8477 3.25-2.5625 0.50391-0.29297 0.97656-0.58984 1.4375-0.87891 0.46094-0.29297 0.94141-0.62109 1.4297-0.875v-0.003906c0.87891-0.51172 1.8164-0.91797 2.7891-1.2031 1.3594-0.375 2.7734-0.48438 4.1719-0.32031 0.90234 0.13281 1.3906 0.30859 1.3906 0.47656 0 0.17188-0.47656 0.35156-1.3672 0.53516l0.003906 0.003906c-1.207 0.24219-2.3867 0.61328-3.5117 1.1094-0.77734 0.37109-1.5078 0.82812-2.1836 1.3633-0.38672 0.26562-0.78125 0.62109-1.1836 0.94922s-0.91406 0.70703-1.3867 1.0742c-0.64844 0.51172-2.5 1.6328-2.5898 2.5117-0.0625 0.60547 1.1094 0.73828 0.77734 1.5469-0.57031 1.3672-3.4727 1.3555-4.6797 1.4805h-0.003907c-2.2773 0.22656-4.4688 0.97266-6.4102 2.1836-1.6602 1.0898-3.1445 2.4258-4.3984 3.9648-0.67188 0.80469-1.293 1.6562-1.8516 2.543-0.14453 0.22266-0.26562 0.46484-0.41406 0.68359l-0.42187 0.79688c-0.32422 0.52344-0.54688 0.94922-0.96094 1.5586-0.41406 0.65234-0.90234 1.25-1.4609 1.7812-0.56641 0.52734-1.207 0.96484-1.9023 1.3047-0.53516 0.28125-1.0742 0.5625-1.6094 0.82812l-0.73828 0.39062-0.60937 0.37109c-0.10938 0.085938-0.25391 0.16016-0.33984 0.23438l-0.23438 0.20703c-0.16016 0.13281-0.31641 0.24609-0.47656 0.38672h-0.003906c-0.32422 0.32812-0.63281 0.67188-0.91406 1.0352l-0.39844 0.53516-0.33984 0.61719c-0.19531 0.35938-0.35156 0.73828-0.46484 1.1328-0.082031 0.36328-0.13281 0.73437-0.15625 1.1094 0.027344 0.18359 0.035157 0.37109 0.046876 0.53516l-0.097657 0.074219c0.027344 0 0.058594 0.0625 0.058594 0.0625l0.12109 0.37109h0.003906c0.22656 0.58203 0.625 1.0781 1.1445 1.4258 1.4922 0.89453 3.1172 1.5508 4.8125 1.9375l1.5352 0.45313-0.31641 1.4805v-0.003906c-0.19922 1.0078-0.69141 1.9297-1.418 2.6602-0.097657 0.085938-0.19141 0.16016-0.30469 0.24609l0.94922-0.13281-1.6836 3.3906c-0.035156 0.085938-0.058594 0.17188-0.085937 0.24609 0.20703-0.67188 2.8789 1.4805 2.9375 1.5078 1.4805 0.69531 2.8789-0.83984 4.1797-1.2422l0.007813-0.007812c0.96875-0.61328 1.9883-1.1445 3.0469-1.582 3.5117-1.418 6.1445-4.1094 9.6211-5.6094 0.38281-0.15234 0.77344-0.28516 1.1719-0.39844 6.5312 1.0391 13.227-0.066406 19.074-3.1562 1.0078-0.34766 1.9961-0.75 2.957-1.2109 2.7617-1.8008 5.7031-3.3086 8.7773-4.5 2.332-0.45313 4.7109-0.60547 7.082-0.44922 4.3359 0.035156 8.5781-1.2695 12.145-3.7461-0.67188-0.62891-1.2812-1.3164-1.8281-2.0547-4.4492-6.0742-2.9844-9.875-0.30078-14.828zm-158.28 3.7578-1.9023 1.5625c-0.13281 0.10547-0.28125 0.21875-0.39844 0.32812-0.13672 0.089844-0.25391 0.21094-0.34375 0.35156 0.082032 0.046876 0.16797 0.089844 0.25781 0.12109 0.80078 0.28906 1.6289 0.47656 2.4727 0.5625 0.87891 0.10547 1.7695 0.17969 2.6328 0.23047l1.293 0.074219c0.46484 0.027344 0.80469 0.027344 1.3789 0.085937l1.1445 0.12109-0.38672 1.1094c-0.26953 0.70703-0.12891 1.5078 0.36719 2.082 0.55469 0.62891 1.2109 1.1602 1.9414 1.5742 1.3047 0.71484 2.6914 1.2734 4.1328 1.6562 2.4375 0.73828 3.9258 0.73828 3.9531 0.94141 0.027344 0.19922-1.5391 0.57422-4.1836 0.14844l-0.003906-0.003906c-1.5977-0.23047-3.1562-0.69531-4.6172-1.3789-0.96484-0.44141-1.832-1.0703-2.5508-1.8516-0.17188-0.24219-0.37109-0.48438-0.53516-0.73828-0.16797-0.25391-0.25391-0.60938-0.37109-0.94141-0.035157-0.27734-0.074219-0.58594-0.085938-0.875h-0.25391l-1.3164-0.035156c-0.90234-0.023437-1.8281-0.070313-2.793-0.17969v-0.003907c-1.0391-0.085937-2.0586-0.3125-3.0352-0.66797-0.32031-0.125-0.62109-0.29687-0.88672-0.51562-0.41406-0.34375-0.66406-0.83984-0.69531-1.375-0.007812-0.32422 0.070313-0.64453 0.22656-0.92969-1.1836-0.22266-2.3164-0.67188-3.3281-1.3281-1.4727-1.0312-2.5703-2.5156-3.1211-4.2305-0.73438-2.7422-0.69141-5.6367 0.125-8.3594 0.4375-2.4961 1.5391-4.8242 3.1914-6.7422 0.30859 0.15625-0.98828 2.6797-1.7891 7.0312-0.53906 2.4609-0.45312 5.0156 0.25391 7.4336 0.46094 1.293 1.3164 2.4062 2.4492 3.1836 1.332 0.75 2.8164 1.1875 4.3398 1.2812zm24.262-9.9336c-0.28906-0.18359-0.55469-0.39453-0.79297-0.63672-0.13672-0.14062-0.26563-0.28516-0.38672-0.4375-0.089844-0.11719-0.16797-0.24219-0.23438-0.37109l-0.11328-0.15625v-0.027344l-0.074218-0.16016v-0.074219l-0.035156-0.11719-0.16016-0.50391v0.003906c-0.089843-0.38281-0.11719-0.77734-0.082031-1.168 0.09375-0.85156 0.57422-1.6133 1.3008-2.0625-0.25781-0.20312-0.5-0.43359-0.71875-0.67969-0.66016-0.72266-0.93359-1.7148-0.73828-2.6719 0.19922-0.78906 0.625-1.5078 1.2188-2.0625 0.48828-0.45312 1.0273-0.84766 1.6094-1.1797 1.3398-0.77344 2.7852-1.3633 4.2891-1.7422-0.52344-0.31641-0.98828-0.58984-1.3516-0.79688-0.73828-0.33984-1.1367-0.55859-1.0859-0.69141 0.046874-0.13281 0.48828-0.14844 1.2969-0.027344v0.003907c1.1406 0.29687 2.2461 0.71484 3.2969 1.2539l1.625 0.79688-1.8516 0.47266h0.003906c-1.8594 0.49609-3.6289 1.2773-5.2422 2.3164-0.85156 0.5625-1.7812 1.4023-1.9023 2.082-0.050781 0.33984 0.074219 0.68359 0.32812 0.91797 0.38281 0.39453 0.82812 0.72656 1.3164 0.98438l0.63281 0.32812 2.6836 1.3789-2.9609 0.55859c-0.45703 0.0625-0.90234 0.19922-1.3125 0.41406-0.31641 0.20703-0.46484 0.37109-0.48828 0.63672-0.019531 0.17188-0.011719 0.34375 0.023437 0.51172l0.085938 0.29297h0.035156c0.015625 0.015625 0.023438 0.035156 0.023438 0.058594l-0.0625-0.035156 0.097656 0.17187v-0.003906c0.0625 0.11719 0.13281 0.23047 0.20703 0.33984l0.16016 0.16016c0.12891 0.14062 0.27734 0.26562 0.4375 0.37109 1.4883 0.89844 3.1289 1.5156 4.8398 1.8281 1.7031 0.1875 3.3711 0.60547 4.9609 1.2422-1.6953 0.47656-3.4805 0.53906-5.2031 0.17188-0.89453-0.09375-1.7773-0.25391-2.6445-0.47656-1.0742-0.23047-2.0977-0.64453-3.0312-1.2148zm10.168 14.602c-0.89062-0.4375-1.7266-0.97656-2.4883-1.6094-0.8125-0.64062-1.4688-1.457-1.9141-2.3906-0.25781-0.57812-0.32422-1.2305-0.18359-1.8477 0.17969-0.60156 0.55078-1.1211 1.0625-1.4805 0.085937-0.0625 0.16016-0.10156 0.24609-0.16016h-0.003906c-0.62891-0.27734-1.2227-0.63281-1.7656-1.0508l-0.58594-0.46094 0.41406-0.53516v-0.003907c0.57031-0.70703 1.3203-1.2461 2.1719-1.5586 0.59375-0.22266 1.2188-0.35938 1.8516-0.40234 1.0586-0.0625 1.5586 0.12109 1.582 0.24609 0.027344 0.12109-0.58594 0.25391-1.4375 0.52344v-0.003906c-0.91797 0.28125-1.7656 0.76172-2.4766 1.4023 0.96094 0.41797 1.9492 0.76953 2.9609 1.0508l2.793 0.8125-2.8789 0.89062v0.003906c-0.62109 0.12891-1.2109 0.37891-1.7305 0.73828-0.41406 0.37109-0.41406 0.5-0.20703 1.0469 0.33594 0.62891 0.80469 1.1758 1.375 1.6016 0.64453 0.51953 1.3477 0.96875 2.0977 1.3281 2.2891 0.96875 4.6953 1.6289 7.1562 1.9648 2.0391 0.30859 4.1016 0.45703 6.1641 0.4375 3.5352 0 5.5508-0.91406 5.6953-0.64844 0.058594 0.085937-0.37109 0.53516-1.3164 0.98828h-0.003906c-1.3594 0.58984-2.8008 0.96484-4.2773 1.1133-2.1602 0.23828-4.3398 0.23828-6.5 0-2.6914-0.24609-5.3242-0.92188-7.8008-1.9961zm16.91-26.332c0.68359 0.24609 1.3555 0.52344 2.0117 0.76563 0.32812 0.13672 0.66016 0.26953 0.98828 0.39062 0.32812 0.12109 0.62109 0.31641 0.94141 0.47266 0.60547 0.31641 1.2188 0.60938 1.8008 0.94141 0.58594 0.32812 1.1094 0.73828 1.6367 1.0859 0.25391 0.18359 0.52344 0.34375 0.78125 0.53516l0.69141 0.59766c0.45312 0.40234 0.90234 0.78125 1.332 1.1562 0.78125 0.82812 1.4492 1.6328 2.0703 2.3633 0.51172 0.80469 0.97266 1.5352 1.3867 2.1836l-0.003906 0.003906c0.32031 0.5625 0.59375 1.1484 0.82031 1.7539 0.39063 0.98828 0.54688 1.5508 0.41406 1.6094-0.13281 0.058593-0.52344-0.38672-1.1094-1.2188-0.31641-0.41406-0.59375-0.96484-1.0742-1.5117-0.47656-0.54688-0.97266-1.1953-1.5469-1.8906-3.25-3.3867-7.3086-5.8945-11.793-7.2891-0.91406-0.28125-1.8164-0.54688-2.7031-0.81641l-4.4414-1.3516 4.5469-0.64844h0.003907c0.46484-0.046875 0.91797-0.16016 1.3516-0.33984 0 0-0.027344-0.035156-0.050781-0.0625-0.66016-0.72656-1.4453-1.332-2.3164-1.7891-1.5742-0.90234-3.2109-1.6836-4.8984-2.3438-1.1289-0.4375-2.2812-0.80859-3.4531-1.1094-0.41406-0.085938-0.73828-0.16016-0.9375-0.19531-0.19531-0.035156-0.37109-0.085937-0.37109-0.14453s0.097656-0.14844 0.31641-0.23438c0.35156-0.10156 0.71094-0.15625 1.0742-0.15625 1.2852 0.019531 2.5586 0.21094 3.793 0.55859 1.8555 0.49609 3.6523 1.1875 5.3633 2.0625 0.51562 0.25781 1.0195 0.54688 1.5 0.86719 0.5625 0.36328 1.0703 0.8125 1.5 1.3281 0.34375 0.40234 0.53125 0.91797 0.52344 1.4492-0.027344 0.33984-0.15625 0.66016-0.37109 0.92578 0.070313 0.023438 0.14453 0.039063 0.21875 0.050781zm15.91 50.152c0.76953-0.69531 1.1484-1.168 1.2695-1.0859 0.12109 0.085937-0.074219 0.64844-0.72266 1.5742h-0.003906c-0.40625 0.57031-0.90625 1.0703-1.4805 1.4805-0.80469 0.57422-1.7539 0.92188-2.7422 0.99609-1.2031 0.054688-2.4023-0.22266-3.4609-0.80469-1.1836-0.64453-2.2305-1.5156-3.0859-2.5586-0.95312-1.1523-1.6875-2.4688-2.168-3.8867-0.42969-1.2109-0.61328-2.4961-0.54688-3.7812-1.1094-0.058594-2.1953-0.16016-3.3281-0.31641h-0.003906c-1.8555-0.21094-3.6758-0.68359-5.4023-1.4023-0.47656-0.23047-0.92188-0.53125-1.3164-0.89062-0.53516-0.49219-0.80859-1.2109-0.73828-1.9375 0.050781-0.29297 0.14844-0.57812 0.29297-0.83984-0.45313-0.027343-0.89844-0.0625-1.3398-0.12109-1.2266-0.097657-2.3789-0.62109-3.2578-1.4805-0.21484-0.24609-0.38672-0.52734-0.50781-0.82812-0.10938-0.29688-0.17188-0.60938-0.1875-0.92578v-0.33984c0.003906-0.17578 0.027343-0.34766 0.074219-0.51562 0.078124-0.27344 0.1875-0.53516 0.32812-0.78125 0.49219-0.73438 1.1602-1.3359 1.9414-1.7539 2.6445-1.4492 4.5586-1.0859 4.4844-0.86719 0 0.10938-0.42578 0.16016-1.1094 0.40234v0.003906c-0.98828 0.33594-1.9219 0.81641-2.7695 1.4258-0.55859 0.38281-1.0234 0.88672-1.3555 1.4766-0.066407 0.13281-0.10938 0.27344-0.13281 0.41406v0.14453l0.027344 0.31641c0 0.058594 0 0.12109 0.027344 0.17188l0.035156 0.074219 0.058594 0.17187c0.074218 0.12891 0.16016 0.24609 0.26562 0.35156 0.66797 0.50391 1.4727 0.78125 2.3047 0.79688 1.0859 0.074219 2.1719 0.082031 3.2578 0.019531l2.7578-0.058593-2.1953 1.7656c-0.26562 0.20703-0.51172 0.4375-0.73828 0.68359-0.14063 0.15625-0.24609 0.33984-0.30859 0.53516 0 0.046876 0 0.085938 0.17578 0.26563l-0.003906 0.003906c0.24219 0.20312 0.51562 0.375 0.80469 0.5 1.5469 0.59766 3.1641 0.99609 4.8086 1.1836 1.3867 0.19531 2.8516 0.33984 4.1328 0.39062l1.2188 0.046876-0.21875 1.1562v0.003906c-0.35156 2.6094 0.37109 5.25 2.0078 7.3125 1.1523 1.7578 3.0234 2.9062 5.1094 3.1367 1.4062-0.042968 2.7422-0.625 3.7266-1.6289zm2.6445-43.75h-0.003907c-0.32422-2.1992-0.83203-4.3633-1.5117-6.4766-0.94922-2.25-2.4805-4.207-4.4414-5.668-2.5625-1.832-5.4883-3.0938-8.582-3.6992l-1.3594-0.3125 0.83984-1.2539 0.37109-0.54688c0-0.17578 0.18359-0.37109 0.13281-0.51562 0.007813-0.35938-0.13281-0.70703-0.38672-0.96094-0.80078-0.77734-1.75-1.3828-2.7969-1.7773-1.1523-0.48828-2.3477-0.87109-3.5703-1.1484l-0.46094-0.097656h-0.0625-0.097657l-0.25391-0.035156c-0.29688-0.027344-0.59375-0.042969-0.89062-0.039063-0.80469 0.0625-1.6133-0.039062-2.375-0.30078-0.20703-0.066406-0.40234-0.15625-0.58594-0.26953l-0.26953-0.14453-0.12109-0.074218-0.035157-0.023438-0.12109-0.085937-0.046876-0.035157h-0.003906c-0.30859-0.22656-0.58984-0.48437-0.84375-0.76562-0.64453-0.73828-0.86328-1.3906-1.1445-1.6562v-0.003907c-0.16797-0.15625-0.35547-0.28906-0.5625-0.39062-0.23438-0.13281-0.48047-0.23828-0.74219-0.31641l-0.20703-0.074219-0.097656-0.035156-0.046875-0.027344-0.45312-0.085937-0.94922-0.19141h0.003907c-2.3398-0.28906-4.7109-0.17578-7.0078 0.34375-2.1484 0.42969-4.2539 1.0469-6.293 1.8477-1.8047 0.68359-3.5664 1.4766-5.2734 2.375-2.5 1.2773-4.8906 2.7656-7.1445 4.4414-0.79688 0.59766-1.3906 1.0742-1.793 1.4141-0.40234 0.33984-0.66797 0.47656-0.71875 0.42969-0.046875-0.046875 0.085937-0.28125 0.41406-0.73828v-0.003907c0.47656-0.62109 1.0078-1.1992 1.582-1.7305 2.1055-1.9727 4.4297-3.6914 6.9258-5.1328 1.7148-1.0039 3.4961-1.8945 5.3281-2.668 2.1133-0.91797 4.3086-1.6328 6.5586-2.1328 2.543-0.63672 5.1875-0.79297 7.7891-0.46484l0.96094 0.17969 0.47656 0.097656 0.10547 0.027344h0.035156l0.074219 0.027344 0.12109 0.046874 0.26563 0.10156 0.007812-0.003906c0.37109 0.11328 0.72656 0.26953 1.0625 0.46484 0.39062 0.21094 0.75 0.48438 1.0625 0.80078 0.63281 0.70703 0.875 1.4492 1.1562 1.707 0.046875 0.13672 0.41406 0.71094 0.64453 0.71094l0.085938-0.074218h0.18359c0.11328 0.0625 0.23047 0.11328 0.35156 0.15625 0.53125 0.17578 1.0938 0.23438 1.6484 0.17188 0.33984 0 0.82813 0.023437 1.1094 0.058593l0.24609 0.035157h0.13281l0.13672 0.027343h0.074219l0.52344 0.10938-0.003907 0.003906c1.3359 0.31641 2.6406 0.74609 3.9023 1.2891 1.332 0.52344 2.5312 1.3359 3.5117 2.375 0.25781 0.32812 0.46875 0.68359 0.63281 1.0625 0.058593 0.21875 0.12109 0.44141 0.17187 0.66016 0.015626 0.22266 0.015626 0.44531 0 0.66797-0.015624 0.32422-0.097656 0.64062-0.24609 0.92969 2.8789 0.77734 5.5664 2.1445 7.8906 4.0117 2.1016 1.6953 3.6758 3.9531 4.5469 6.5078 0.53906 1.6367 0.78906 3.3594 0.74219 5.082 0.015625 0.61328-0.09375 1.2227-0.32031 1.7969zm13.723 13.074c-1.2344 1.7891-1.8633 3.9219-1.8008 6.0938-1.0469-1.6484-2.3203-3.1445-3.7812-4.4414-1.5195-1.4961-2.6562-3.3398-3.3047-5.375-0.10547-0.5-0.21875-1.0156-0.32812-1.5117l-0.023437-0.13281v-0.15625l-0.027344-0.20703-0.046875-0.39844c-0.027344-0.28125-0.027344-0.5625-0.046875-0.84375v-0.003907c-0.058594-1.1797 0.0625-2.3555 0.35156-3.4961 0.085938-0.30859 0.1875-0.60938 0.30469-0.90625 0.12891-0.30469 0.27344-0.60156 0.4375-0.89062l0.32812-0.52734 0.027344-0.046875c0.10547-0.16016 0.070312-0.085937 0.10547-0.13281l0.20703-0.19531h0.003906c0.24609-0.21094 0.54297-0.34766 0.86328-0.39844 0.20703-0.027343 0.41406-0.035156 0.5625-0.050781v-0.003906c0.21094 0.007813 0.41797-0.011719 0.62109-0.046875l0.097656-0.023438c-0.035156 0-0.046875 0.070313 0 0.046876l0.14453-0.16016 0.035156-0.035156 0.050781-0.085937 0.14453-0.30469 0.003906 0.003906c0.09375-0.19922 0.16016-0.40625 0.20703-0.62109 0.22266-1.1094 0.10156-2.2656-0.35156-3.3047-0.45312-1.1211-1.0391-2.1875-1.7461-3.1719-0.6875-0.98438-1.4414-1.9141-2.2656-2.7891l-0.625-0.63672-0.27734-0.26562-0.31641-0.26953c-0.47656-0.37109-0.94141-0.73828-1.3906-1.1094h-0.003907c-0.94531-0.74219-1.8203-1.5625-2.6172-2.4609-0.44141-0.47656-0.79297-1.0234-1.0469-1.6211-0.070313-0.17188-0.125-0.35156-0.16016-0.53516-0.050781-0.21484-0.066406-0.4375-0.046874-0.66016 0.007812-0.12891 0.03125-0.26172 0.058593-0.39062l0.046875-0.19531 0.046875-0.085937 0.085938-0.17969 0.035156-0.085937 0.085937-0.14844c0.035157-0.042968 0.074219-0.085937 0.11328-0.12109 0.30078-0.32422 0.70703-0.53516 1.1445-0.59766 0.29297-0.0625 0.58984-0.10156 0.89062-0.10938 0.52344-0.03125 1.0469-0.03125 1.5703 0 0.13672 0 0.25781 0 0.39063 0.027344-0.73828-0.46094-1.4805-0.83984-2.1836-1.1836l0.003906-0.003906c-1.125-0.54688-2.2812-1.0234-3.4648-1.4219-1.043-0.26953-2.0703-0.59766-3.082-0.98047 1.0977-0.23438 2.2422-0.16797 3.3047 0.1875 1.2656 0.27344 2.5 0.65625 3.6992 1.1406 1.6406 0.61719 3.1836 1.4688 4.582 2.5234l1.4023 1.1094-1.7812 0.17188c-1.1094 0.10547-1.9492 0-2.9219 0.023437-0.47266-0.007812-0.94531 0.007813-1.418 0.046875-0.20703 0.015625-0.41797 0.046875-0.62109 0.10156-0.074219 0.015625-0.14453 0.035156-0.21875 0.058593l-0.0625 0.16016-0.046875 0.085937c0.035156-0.023437 0.074218 0.085938 0.085937 0.14844v-0.003906c0.007813 0.082031 0.039063 0.16016 0.082031 0.23047 0.19531 0.41016 0.45703 0.78516 0.76953 1.1094 0.75391 0.78906 1.5664 1.5156 2.4414 2.168l1.4141 1.0859 0.37109 0.30469 0.37109 0.33984 0.67188 0.66797-0.003906 0.003906c0.91016 0.92969 1.7461 1.9297 2.5 2.9883 0.81641 1.1133 1.4961 2.3242 2.0117 3.6094 0.60937 1.4258 0.76172 3.0039 0.4375 4.5195-0.074219 0.33984-0.18359 0.67188-0.32813 0.98828l-0.24609 0.46484-0.085938 0.19141-0.027343 0.035157-0.14844 0.17188-0.070312 0.074218-0.074219 0.074219 0.003906 0.003907c-0.32812 0.33984-0.74609 0.57812-1.2031 0.69531-0.34766 0.070312-0.69922 0.10156-1.0508 0.09375h-0.19141l-0.027343 0.035156-0.21875 0.37109c-0.21875 0.39453-0.39062 0.8125-0.51562 1.2461-0.25 0.94141-0.35938 1.9141-0.32812 2.8867 0.078125 2.8086 1.2109 5.4883 3.1719 7.4961 0.52344 0.58594 1.0352 1.1953 1.5352 1.8047 0.046875-0.10938 0.085938-0.20703 0.12109-0.31641 0.41406-0.91797 0.91016-1.8008 1.4805-2.6328 0.89453-1.3008 1.8672-2.5469 2.9141-3.7305 1.7305-1.9375 2.7422-2.9609 2.8633-2.875 0.12109 0.085938-0.66016 1.3398-2.1562 3.4375-0.71484 1.043-1.6172 2.3242-2.5195 3.8555zm27.797-12.777c-0.32422 0.14062-0.625 0.33594-0.875 0.58594-0.37891 0.36328-0.64844 0.82422-0.78125 1.3281-0.16797 0.64453-0.12109 1.3242 0.13281 1.9375l0.37109 0.80469-0.92969 0.20703c-1.7305 0.40234-3.7773 0.21094-5.6094 0.59766-0.23438 0.039062-0.46094 0.097656-0.67969 0.18359-0.22656 0.054688-0.44531 0.14063-0.64844 0.25781l-0.57422 0.27734c-0.21875 0.17188-0.48438 0.34375-0.66797 0.5-0.36328 0.34766-0.69922 0.71875-1.0117 1.1094-0.37109 0.44141-0.73828 0.91406-1.1484 1.4023h0.003906c-0.45703 0.56641-1.0039 1.0547-1.6094 1.4492l-0.039062 0.039063c-0.42969 0.17578-0.89844 0.25-1.3633 0.20703-2.2695 0-2.4375 0.31641-4.0469 2.0117-0.33984 0.35156-0.67969 0.67969-1 1.0195-0.31641 0.33984-0.64844 0.67188-0.94141 0.98828-0.15625 0.17188-0.30469 0.31641-0.45312 0.47656-0.14844 0.16016-0.21875 0.31641-0.31641 0.46094l-0.62109 0.88672 0.003906 0.003906c-0.59375 0.97266-1.1094 1.9883-1.5508 3.0391-0.32812 0.73828-0.58594 1.1562-0.71875 1.1094-0.13281-0.046875-0.12109-0.5 0-1.3398 0.17969-1.2109 0.53906-2.3906 1.0625-3.5 0.19141-0.37109 0.39844-0.71875 0.60547-1.1094 0.10938-0.19531 0.23438-0.37109 0.34375-0.58594 0.10938-0.21484 0.26562-0.33984 0.39844-0.52344 0.28125-0.33984 0.5625-0.69531 0.85547-1.0586 0.29297-0.36328 0.63281-0.73828 0.96094-1.1094h0.003906c0.71094-0.91406 1.5586-1.7148 2.5117-2.375l0.37109-0.20703 0.046876-0.027344 0.10937-0.046875c0.023438-0.003906 0.042969-0.011719 0.0625-0.023437l0.17188-0.050782c0.10937-0.023437 0.24609-0.058593 0.34375-0.070312h-0.003907c0.33984-0.042969 0.67969-0.058594 1.0234-0.039062 0.28125 0.023437 0.55078 0.035156 0.82812 0.046874v0.003907c0.125 0.007812 0.24609 0 0.37109-0.027344 0.38672-0.28125 0.73437-0.61328 1.0352-0.98828 0.37109-0.42578 0.73828-0.89844 1.1367-1.375 0.41797-0.51172 0.88281-0.98438 1.3867-1.4141 0.25781-0.20703 0.47656-0.32812 0.73828-0.5 0.39844-0.23438 0.60547-0.30859 0.92578-0.46094 0.28125-0.13281 0.57422-0.23438 0.875-0.30859 0.28906-0.09375 0.58203-0.15625 0.88281-0.19141 1.0469-0.16016 2.1094-0.21094 3.168-0.16016 0.66016 0.023437 1.2422 0 1.793 0-0.050782-0.65234 0.0625-1.3125 0.32812-1.9102 0.28906-0.67188 0.78516-1.2305 1.4141-1.6016 0.38672-0.22656 0.83203-0.34375 1.2812-0.32812 0.28125 0 0.4375 0.0625 0.45312 0.12109 0.011719 0.058593-0.15234 0.14844-0.41016 0.26953zm1.9883-13.922c-1.1094 0.035156-2.1445 0.058594-3.1914 0.085938h-0.003906c0.21484 0.42578 0.44922 0.83594 0.70703 1.2305 0.56641 0.79688 1.0586 1.6367 1.4805 2.5156l0.32812 0.76562-0.71875 0.32813h0.003906c-1.4609 0.66406-3.1094 0.77734-4.6445 0.31641-1.0859-0.3125-2.1289-0.75391-3.1133-1.3164-1.5742-0.89063-2.4219-1.4141-2.3633-1.582 0.058594-0.17188 1.0859 0.085938 2.7578 0.70703 0.98047 0.36719 1.9844 0.65625 3.0117 0.86328 0.92187 0.17578 1.8711 0.125 2.7656-0.14844-0.29297-0.45312-0.64844-0.91406-1.0156-1.4258l0.003906 0.003906c-0.70703-0.89453-1.2109-1.9297-1.4805-3.0391l-0.20703-1.0742 1.168-0.058594 1.7148-0.074219c-0.26562-0.21875-0.52344-0.44141-0.80469-0.66016l0.003906 0.003906c-4.1836-3.7344-8.8711-6.8711-13.922-9.3125-1.5352-0.66406-3.1406-1.1602-4.7812-1.4805-1.1797-0.19531-1.875-0.29297-1.875-0.44141 0-0.14844 0.66797-0.31641 1.9141-0.37109 1.7891 0.027344 3.5625 0.33984 5.2539 0.92969 5.4062 2.1289 10.391 5.2031 14.719 9.082 0.97266 0.80469 1.9141 1.5977 2.8359 2.3672l2.0859 1.7266zm2.9609 39.426c1.6797-0.035157 3.3594-0.16016 5.0312-0.37109 0.94141-0.13281 1.9023-0.26562 2.9609-0.47266h-0.003906c0.98828-0.21875 1.9531-0.53516 2.8789-0.9375 0.51172-0.21094 1.0078-0.45703 1.4805-0.74219 0.38672-0.20312 0.72266-0.48438 0.98828-0.82812 0.14844-0.26953 0.17188-0.19531 0.035156-0.45312h0.003907c-0.11328-0.13672-0.23828-0.26953-0.37109-0.39062l-0.52344-0.37109-1.6094-1.1484 1.7695-0.54688v0.003906c1.043-0.35547 1.9648-0.99609 2.6562-1.8516 0.25781-0.3125 0.44531-0.67969 0.54688-1.0742 0.074219-0.24609-0.011719-0.51562-0.21875-0.67188-0.46094-0.30859-0.98438-0.51172-1.5352-0.58594-0.45312-0.085937-0.69531-0.17969-0.69531-0.27734 0-0.097657 0.23047-0.20703 0.67969-0.31641 0.73828-0.17578 1.5117-0.085937 2.1836 0.25391 0.28516 0.14844 0.51562 0.37891 0.67188 0.66016 0.082032 0.15625 0.15234 0.32031 0.20703 0.48828 0.027343 0.17188 0.050781 0.33984 0.0625 0.52344v-0.003906c-0.046876 0.67188-0.26172 1.3164-0.62109 1.8789-0.50781 0.77734-1.1641 1.4453-1.9297 1.9609 0.11328 0.10547 0.21875 0.21484 0.32031 0.33203 0.10938 0.18359 0.21875 0.39062 0.31641 0.58984v-0.003906c0.085937 0.23828 0.13672 0.48828 0.14453 0.74219 0.003906 0.47656-0.13672 0.94531-0.40234 1.3438-0.41406 0.60547-0.96094 1.1094-1.5938 1.4766-0.55469 0.35547-1.1406 0.66016-1.7461 0.91406-1.082 0.47266-2.207 0.82031-3.3633 1.0391-1.0234 0.17188-2.0977 0.29297-3.0977 0.37109v-0.003907c-1.7656 0.13281-3.543 0.10156-5.3008-0.082031-3.0391-0.33984-4.7656-1.2695-4.6562-1.5h-0.003906c1.5781-0.125 3.1641-0.10938 4.7344 0.046875zm-20.555 13.531h-0.003906c-0.71094-0.14453-1.4062-0.36328-2.0703-0.66016-0.85547-0.34766-1.6172-0.89453-2.2227-1.5938-0.42578-0.51562-0.62891-1.1836-0.5625-1.8477 0.125-0.67578 0.48828-1.2852 1.0273-1.707 0.30859-0.25 0.64453-0.46484 1-0.64844-0.29297-0.37109-0.46484-0.82031-0.5-1.2891-0.019531-0.42578 0.050781-0.84766 0.20703-1.2461 0.26953-0.64062 0.64453-1.2344 1.1094-1.7578 0.39844-0.46094 0.82422-0.89453 1.2812-1.3008 0.82422-0.73047 1.6992-1.4062 2.6172-2.0234 1.5195-1.0391 3.1133-1.9648 4.7695-2.7695 2.7891-1.4023 4.8086-1.8047 4.8867-1.4492-1.3242 1-2.7188 1.9062-4.168 2.7148-1.2812 0.82813-2.7891 1.8516-4.375 3.0391-0.79297 0.60547-1.5938 1.2539-2.3633 1.9766h-0.003906c-0.75391 0.64062-1.375 1.4219-1.8281 2.3008-0.12109 0.37109-0.10156 0.44141-0.027343 0.5625h0.003906c0.25391 0.21484 0.54688 0.375 0.86328 0.47266l2.9844 1.1094-2.9961 0.82812c-0.79688 0.19922-1.5547 0.53125-2.2461 0.97656-0.5 0.47266-0.52344 0.5-0.25391 1.0195v0.003906c0.39453 0.51953 0.90234 0.94141 1.4805 1.2422 0.54688 0.32031 1.1211 0.58594 1.7188 0.79688 2.2188 0.80469 3.6992 0.67969 3.7305 0.9375 0.03125 0.25391-1.4727 0.83203-4.0586 0.30469zm49.461-18.297-0.035157 0.19141c0 0.046875 0 0.027343-0.023437 0.13281l-0.027344 0.074219-0.074219 0.30859h-0.003906c-0.10156 0.45312-0.23438 0.89844-0.40234 1.3281-0.1875 0.51172-0.41406 1.0078-0.67969 1.4805-0.53125 0.97266-1.207 1.8594-2 2.6289-1.6719 1.5352-3.6562 2.6914-5.8164 3.3906-0.98828 0.34375-1.9922 0.63281-3.0117 0.86719 0.027344 0.12109 0.046875 0.24609 0.058594 0.36719 0.046875 0.62109-0.0625 1.2383-0.3125 1.8086-0.078125 0.14844-0.16797 0.29297-0.26172 0.43359-5.5938 4.2578-12.531 6.3555-19.543 5.8984l-0.10547-0.023438c-0.42578-0.097656-0.85547-0.17969-1.2539-0.27734-0.39844-0.097657-0.79297-0.24609-1.1719-0.37109v0.003906c-1.3633-0.43359-2.6914-0.96484-3.9727-1.5977-1.1094-0.57422-2.0352-1.1094-2.7656-1.5977-1.4258-1.0195-2.1328-1.6953-1.9883-1.9492 0.14453-0.25391 1.1094-0.046875 2.6953 0.51562l2.9062 0.90234c1.1445 0.27734 2.4141 0.66797 3.8516 0.91406 0.35156 0.058594 0.70703 0.14453 1.0859 0.20703s0.73828 0.085938 1.1484 0.12109l1.1953 0.14453 1.2305 0.035156c0.41406 0 0.83984 0 1.2773 0.027344s0.83203-0.0625 1.2578-0.085937l1.293-0.089844 1.4805-0.25391 0.73828-0.12109 0.37109-0.070313h0.10938l0.070312-0.023437-0.007812-0.003906c0.39453-0.12891 0.78125-0.28516 1.1562-0.46484 0.89453-0.40625 1.7578-0.875 2.5898-1.3984 0.81641-0.49609 1.5781-1.082 2.2695-1.7461 0.14453-0.13281 0.27344-0.27734 0.38672-0.4375-0.13281-0.074219-0.26953-0.14062-0.41406-0.19531l-7.3516-2.6211 7.707-1.3164c3.7773-0.31641 7.4141-1.5898 10.566-3.6992 0.57422-0.48828 1.0742-1.0586 1.4805-1.6953 0.19922-0.27734 0.37109-0.57422 0.51172-0.88672 0.18359-0.35547 0.32813-0.72656 0.4375-1.1094l0.10938-0.29297 0.023437-0.074219v-0.023438l0.035156-0.10156c0.027344-0.14453 0.085938-0.28125 0.10938-0.4375l0.003906 0.003906c0.054688-0.3125 0.085938-0.625 0.097657-0.94141 0.019531-0.63281-0.039063-1.2656-0.16797-1.8906-0.32812-1.9492-1.3398-3.7227-2.8555-4.9961-0.4375-0.31641-0.91406-0.57812-1.4141-0.78125-0.41406-0.13281-0.63672-0.27734-0.62109-0.41406 0.015625-0.13672 0.21875-0.26563 0.64453-0.37109 0.70312-0.11328 1.418-0.046875 2.0859 0.19531 2.3867 1.0664 4.1758 3.1328 4.8906 5.6445 0.28125 0.82031 0.45703 1.6719 0.52344 2.5391 0.039063 0.48047 0.039063 0.96484 0 1.4492-0.023437 0.21484-0.082031 0.46875-0.11719 0.73828zm3.3906-8.5469c-0.12109 0.035156-0.41406-0.45313-0.83984-1.3438-0.42578-0.89063-1.0859-2.168-1.9023-3.7539-0.46484-0.73828-0.96484-1.5742-1.5039-2.4609-0.53516-0.88672-1.3398-1.8516-1.9609-2.7188h-0.003906c-0.36328-0.41797-0.77344-0.78906-1.2227-1.1094-0.35547-0.28516-0.78516-0.46484-1.2422-0.52344-0.14453 0.023438-0.20703 0-0.26562 0.097657-0.11719 0.125-0.20313 0.27734-0.25391 0.44141-0.13672 0.57031-0.19141 1.1562-0.16016 1.7422l0.074219 5.7422-2.0508-5.375c-0.49609-1-1.1992-1.8828-2.0586-2.5898-2.0078-1.7969-4.2969-3.25-6.7812-4.293-0.53125-0.22266-1.0898-0.39062-1.6562-0.5-0.40234-0.10156-0.82031-0.10156-1.2227 0-0.14453 0.074219-0.25391 0.24609-0.25391 0.69531 0.03125 0.45703 0.11719 0.90625 0.25391 1.3438l0.39063 1.3516-1.2539-0.30469h0.003907c-1.9609-0.59375-3.9609-1.0469-5.9883-1.3555-1.3438-0.13281-2.2188 0.16016-2.2578-0.023437-0.023438-0.10938 0.59766-0.68359 2.2422-0.85547v0.003906c1.6953-0.0625 3.3867 0.097656 5.0391 0.47656-0.046875-0.18359-0.082032-0.37109-0.097656-0.5625-0.03125-0.1875-0.03125-0.375 0-0.5625 0.003906-0.21875 0.050781-0.42969 0.13281-0.63281 0.17188-0.46875 0.5-0.85938 0.92969-1.1094 0.73828-0.34766 1.5703-0.45312 2.375-0.30469 0.69922 0.10938 1.3867 0.28906 2.0508 0.53906 2.75 1.0469 5.2812 2.5938 7.4688 4.5664 0.37109 0.33984 0.72656 0.69922 1.0625 1.0742 0.16797-0.38281 0.42188-0.72656 0.73828-1 0.44141-0.375 1.0078-0.57031 1.5859-0.54688 0.85547 0.066406 1.668 0.39844 2.3242 0.95312 0.55078 0.42969 1.0508 0.92578 1.4805 1.4766 0.73828 1.1367 1.3555 1.9883 1.9023 2.9609s1 1.9023 1.3789 2.7578c0.58984 1.3281 1.0547 2.707 1.3867 4.1211 0.21094 0.99219 0.27734 1.5508 0.15234 1.5742z"/>
  <path d="m565.66 367.21-0.039062 0.035157s0.035156-0.023438 0.054687-0.035157z"/>
  <path d="m569.03 368.72c-0.023438-0.058594-0.11719-0.27734-0.15234-0.33203-0.17969-0.27734-0.40625-0.51953-0.66797-0.71875-0.36328-0.36328-0.82422-0.61719-1.3242-0.73828-0.12109-0.027344-0.24609-0.027344-0.36719 0v-0.023438c-0.20312 0-0.40625 0.039063-0.59375 0.11328-0.09375 0.039062-0.18359 0.10156-0.25391 0.17578 0.097656-0.042969 0.20312-0.066407 0.3125-0.066407h0.097656l-0.039062 0.035157h-0.003907c-0.15234-0.011719-0.3125 0.011719-0.45703 0.066406l0.023438-0.019531-0.035157 0.027344-0.003906-0.003907c-0.12891 0.050781-0.24219 0.125-0.34375 0.21875-0.058594 0.050781-0.10938 0.10156-0.15625 0.16016-0.12109 0.097656-0.21875 0.22656-0.27734 0.37109l-0.085937 0.16016c-0.078125 0.12891-0.14844 0.26562-0.20703 0.41016-0.042969 0.058594-0.078125 0.12109-0.10156 0.19141-0.12109 0.27734-0.097656 0.59375 0.058594 0.85156 0.50391 1.0625 1.543 1.7695 2.7148 1.8477 0.1875 0.003906 0.37109-0.015625 0.55078-0.050781 0.15234-0.03125 0.29688-0.097657 0.41406-0.19531 0.25391-0.21484 0.47656-0.46094 0.65625-0.74219 0.30859-0.34766 0.44531-0.82031 0.37109-1.2812-0.015625-0.16016-0.070312-0.3125-0.16016-0.44141z"/>
  <path d="m583.64 374.5c-0.33984-0.37109-0.67188-0.70312-1-1.0195 2.3438-1.9297 4.5938-3.9531 6.7578-6.0664v-0.003906c3.1211-3.0703 5.9922-6.3828 8.5938-9.9023-3.5234 2.5977-6.832 5.4727-9.9023 8.5938-2.125 2.1641-4.1523 4.4258-6.0859 6.7773h-0.003906c-0.57031-0.54297-1.1914-1.0391-1.8477-1.4805-3.3281-2.0234-6.8047-3.793-9.9883-6.0469-4.1055-2.6133-8.5547-4.6406-13.219-6.0195-2.6445-0.98828-5.0195-2.3633-7.4961-3.3633 1.2969 0.94141 2.457 2.0625 3.4375 3.3281 1.0039 1.4453 1.3594 3.2461 0.98438 4.9648-0.37109 1.7188-1.4453 3.207-2.9609 4.1016-1.1992 0.89062-2.6836 1.2969-4.168 1.1484-0.40625 0.5625-0.90625 1.0508-1.4805 1.4414-1.0781 1.4766-2.0195 3.0469-2.8164 4.6914-1.8516 4.3125 1.9258 9.2852 5.4336 11.336l0.003906 0.003907c5.1992 2.4492 10.898 3.6523 16.648 3.5195 2.5508 0.10547 5.1055 0.082031 7.6562-0.074219l-0.027344-0.035156-0.13281-0.20703c-0.1875-0.27734-0.34375-0.57422-0.46484-0.88672-0.28516-0.68359-0.41016-1.4219-0.36719-2.1602 0.18359-1.668 1.0547-3.1875 2.3984-4.1953 0.58203-0.45703 1.2266-0.83203 1.9141-1.1094 0-0.55469 0.097657-1.1016 0.29688-1.6211 0.33984-0.92578 1.0391-1.6758 1.9336-2.0859 0.55078-0.23828 1.168-0.28516 1.7461-0.13281 0.30469 0.16016 0.47266 0.32812 0.48438 0.51562 0.011719 0.18359-0.13281 0.38672-0.41406 0.58594v-0.003906c-0.23828 0.22656-0.45313 0.47266-0.64063 0.74219-0.24609 0.41406-0.10156 4.293 0.55859 4.293-2.1797 0.058594-6.4336 0.29297-6.2031 3.6719l-0.003906-0.003906c0.23047 0.90625 0.83203 1.6719 1.6602 2.1133-0.82422 2.5469-1.9336 4.9922-3.3047 7.2891-1.9102 3.1094-4.2422 5.9375-6.9258 8.4062 3.0625-1.3398 5.707-3.4766 7.6602-6.1914 1.9531-2.7109 3.1406-5.8984 3.4375-9.2266 1.1328 0.078125 2.2656-0.12109 3.3008-0.58594-0.32812 2.2383-0.50781 4.4922-0.53516 6.7539-0.03125 3.1055 0.28125 6.2109 0.93359 9.25 0.65234-3.0391 0.96094-6.1445 0.92578-9.25-0.027344-2.3555-0.21875-4.7031-0.58203-7.0312 0.24219-0.10156 0.48437-0.19531 0.70703-0.29297 1.3828 2.5469 2.8398 5 4.2812 7.457v0.003906c1.7383 3.1523 3.6641 6.1953 5.7695 9.1133-0.48438-1.7656-1.082-3.4961-1.7891-5.1797-0.64453-1.707-1.4453-3.3516-2.3945-4.9062-1.4648-2.4453-3.2031-4.7188-5.1797-6.7773 0.17188-0.066406 0.37109-0.14844 0.50781-0.19141 1.0547-0.38672 2.0195-0.98828 2.8281-1.7695 0.52734-0.73047 0.99219-1.5039 1.3906-2.3125-0.55078 0.011718-1.0977-0.125-1.5742-0.40625-1.0352-0.6875-1.7617-1.7461-2.0352-2.957-0.31641-1.2773-0.29688-2.6133 0.0625-3.8789 0.15234-0.49609 0.36719-0.97266 0.64062-1.4141 1.9727-0.15625 3.9297-0.41406 5.875-0.77734 3.1133-0.57812 6.1523-1.4922 9.0664-2.7305-3.168-0.027343-6.332 0.28906-9.4297 0.94531-1.668 0.35156-3.2969 0.76172-4.9219 1.25zm-17.52 7.875v-0.003906c-0.23438 0.26172-0.49609 0.49219-0.78125 0.69531-1.0391 0.69922-2.1562 1.2773-3.3281 1.7188-1.7227 0.71094-3.5234 1.207-5.3633 1.4805-0.56641 0.082031-1.1367 0.11719-1.707 0.09375-0.75391 0.023437-1.4922-0.19922-2.1094-0.62891-0.44531-0.34766-0.72266-0.86328-0.76953-1.4258 0-0.23438 0.015625-0.46484 0.046875-0.69531 0.050781-0.19531 0.10938-0.40234 0.17578-0.57422 0.0625-0.17188 0.13281-0.25391 0.19141-0.37109-0.62891-0.058594-1.2578-0.15625-1.875-0.29297-0.32812-0.10938-0.66016-0.24609-0.96094-0.37109v0.003906c-0.30469-0.19531-0.59375-0.40625-0.86719-0.63672-0.22266-0.25391-0.42969-0.51172-0.63672-0.76562s-0.28125-0.53516-0.41406-0.79688l-0.097656-0.20703-0.046875-0.097656v-0.027344l-0.046875-0.11719v-0.050781l-0.085938-0.37109v0.003906c-0.078124-0.27734-0.125-0.55859-0.14844-0.84375-0.058594-0.57031-0.015625-1.1445 0.13672-1.6953 0.27734-0.93359 0.80078-1.7734 1.5117-2.4375 0.92578-0.86328 2.0039-1.543 3.1797-2.0117 0.80469-0.34375 1.2812-0.44141 1.3555-0.31641 0.074219 0.12109-0.28125 0.46094-0.94141 1-0.92187 0.68359-1.7695 1.457-2.5352 2.3125-0.45703 0.52734-0.77344 1.168-0.91406 1.8516-0.058594 0.34766-0.058594 0.69922 0 1.0469 0.019531 0.19922 0.0625 0.39844 0.13672 0.58594l0.097657 0.31641 0.035156 0.0625 0.070313 0.13281c0.28125 0.74219 0.91797 1.293 1.6914 1.4648 0.84375 0.21094 2.0391 0.19531 3.2812 0.40234l1.6328 0.29297-1 1.3672-0.074218 0.085937 0.003906-0.003906c-0.30078 0.37891-0.55469 0.78906-0.76562 1.2188l-0.074219 0.24609c0 0.058593 0 0.097656-0.027344 0.13281 0.29297 0.16016 0.61719 0.24609 0.94922 0.24609 0.46875 0.023437 0.93359 0.015625 1.3984-0.023437 1.7305-0.17969 3.4414-0.50391 5.1172-0.96484 1.4492-0.39062 2.5898-0.76953 3.3984-1.0508 0.40234-0.14453 0.69531-0.25391 0.90234-0.31641 0.20703-0.058594 0.37109-0.10938 0.40234-0.046875 0.039063 0.0625 0.003906 0.18359-0.14453 0.37891zm6.7109-9.3672c-0.5625 0.0625-1.1484-0.10547-1.6562 0.21875-0.51172 0.32422-0.40234 1.0508-1.0742 1.3555-0.40234 0.18359-0.81641 0.37109-1.2305 0.52344-1.7266 0.82813-3.75 0.76953-5.4258-0.16016-1.332-0.96484-2.1172-2.5195-2.1055-4.168-0.0625-2.8633 1.8516-6.8008 5.2422-6.6094 3.1914 0.19531 3.8516 2.2773 5.1797 4.5625 0.11328 0.19531 0.26172 0.36719 0.43359 0.51172 0.98828 0.78125 2.7812 1.1094 2.793 2.4648-0.027343 1.4492-1.1367 1.207-2.1562 1.3008z"/>
  <path d="m588.52 379.28c-0.18359-0.53516-0.41016-1.0469-0.68359-1.5391-0.15234-0.21094-0.32812-0.39844-0.52344-0.5625-0.37891-0.28516-0.87891-0.35938-1.3203-0.19531-0.46484 0.16797-0.82031 0.54297-0.96094 1.0156-0.36719 1.332-0.42578 2.7344-0.16406 4.0898 0.13672 0.55469 0.42969 1.0586 0.84375 1.4531 0.26172 0.25781 0.62109 0.39844 0.98828 0.38672 0.41016 0.007812 0.80469-0.13672 1.1133-0.40234 0.25391-0.125 0.46094-0.32422 0.59766-0.57422 0.43359-0.85938 0.55078-1.8398 0.33203-2.7773 1.2148 0.26953 2.457 0.41797 3.6992 0.44922 1.8945 0.03125 3.7734-0.28125 5.5547-0.92188-1.7773-0.64453-3.6602-0.95703-5.5508-0.92578-1.3203 0.03125-2.6367 0.19922-3.9258 0.50391z"/>
 </g>
</svg>
